<?xml version="1.0" encoding="utf-8"?>
<!-- Svg Vector Icons : http://www.onlinewebfonts.com/icon -->
<!DOCTYPE svg PUBLIC "-//W3C//DTD SVG 1.1//EN" "http://www.w3.org/Graphics/SVG/1.1/DTD/svg11.dtd">
<svg version="1.1" xmlns="http://www.w3.org/2000/svg" xmlns:xlink="http://www.w3.org/1999/xlink" x="0px" y="0px" viewBox="0 0 1000 1000" enable-background="new 0 0 1000 1000" xml:space="preserve">
<metadata> Svg Vector Icons : http://www.onlinewebfonts.com/icon </metadata>
<g><path d="M979.6,524.6l-140,140C833,671.2,824.3,675,815,675c-19.1,0-35-15.9-35-35v-70H570v210h70c19.1,0,35,15.9,35,35c0,9.3-3.8,18-10.4,24.6l-140,140C518,986.2,509.3,990,500,990c-9.3,0-18-3.8-24.6-10.4l-140-140C328.8,833,325,824.3,325,815c0-19.1,15.9-35,35-35h70V570H220v70c0,19.1-15.9,35-35,35c-9.3,0-18-3.8-24.6-10.4l-140-140C13.8,518,10,509.3,10,500c0-9.3,3.8-18,10.4-24.6l140-140c6.6-6.6,15.3-10.4,24.6-10.4c19.1,0,35,15.9,35,35v70h210V220h-70c-19.1,0-35-15.9-35-35c0-9.3,3.8-18,10.4-24.6l140-140C482,13.8,490.7,10,500,10s18,3.8,24.6,10.4l140,140c6.6,6.6,10.4,15.3,10.4,24.6c0,19.1-15.9,35-35,35h-70v210h210v-70c0-19.1,15.9-35,35-35c9.3,0,18,3.8,24.6,10.4l140,140c6.6,6.6,10.4,15.3,10.4,24.6C990,509.3,986.2,518,979.6,524.6z"/></g>
</svg>